<svg id="LOGO" xmlns="http://www.w3.org/2000/svg" viewBox="0 0 360 60"><defs><style>.cls-1{fill:#6899c7;}.cls-2{fill:#5e8bb4;}.cls-3{fill:#7bb0e0;}.cls-4{fill:#a1d1f7;}</style></defs><title>LOGO</title><g id="TYPE_PATH" data-name="TYPE PATH"><path id="H" class="cls-1" d="M307.73,45.75h-7.27V17.53h-9.3v-6H317v6h-9.3Z"/><path id="T" class="cls-1" d="M350.86,45.75h-7.24V31H330V45.75h-7.27V11.48H330V24.91h13.57V11.48h7.24Z"/><path id="I" class="cls-1" d="M278.14,45.75V11.48h7.27V45.75Z"/><path id="R" class="cls-1" d="M253.23,32.6V45.75H246V11.48h10q7,0,10.34,2.54t3.35,7.72A9.09,9.09,0,0,1,268,27.13a11,11,0,0,1-4.71,3.69Q271,42.38,273.34,45.75h-8.06L257.1,32.6Zm0-5.91h2.34a9,9,0,0,0,5.09-1.15,4.1,4.1,0,0,0,1.64-3.61,3.75,3.75,0,0,0-1.68-3.47,10.17,10.17,0,0,0-5.19-1h-2.2Z"/><path id="A" class="cls-1" d="M233.35,45.75l-2.48-8.16H218.37l-2.48,8.16h-7.83l12.09-34.41H229l12.14,34.41ZM229.13,31.5Q225.68,20.41,225.25,19t-.62-2.3q-.77,3-4.43,14.84Z"/><path id="L" class="cls-1" d="M182.85,45.75V11.48h7.27V39.75H204v6Z"/><path id="O" class="cls-1" d="M178.15,28.57q0,8.51-4.22,13.08t-12.09,4.57q-7.87,0-12.09-4.57t-4.22-13.12q0-8.55,4.23-13.07t12.13-4.51q7.9,0,12.08,4.55T178.15,28.57Zm-25,0q0,5.74,2.18,8.65a7.63,7.63,0,0,0,6.52,2.91q8.7,0,8.7-11.55T161.89,17a7.68,7.68,0,0,0-6.54,2.92Q153.14,22.83,153.14,28.57Z"/><path id="P" class="cls-1" d="M142,22.17q0,5.53-3.46,8.46t-9.83,2.93h-3.12V45.75h-7.27V11.48H129.3q6.24,0,9.48,2.68T142,22.17Zm-16.41,5.44H128a8,8,0,0,0,5-1.32,4.63,4.63,0,0,0,1.66-3.86,4.75,4.75,0,0,0-1.39-3.77,6.53,6.53,0,0,0-4.37-1.22h-3.3Z"/></g><g id="WING_SHAPE" data-name="WING SHAPE"><polygon id="_4" data-name="4" class="cls-2" points="108.32 34.99 100.2 24.74 74.46 55.08 108.32 34.99"/><polygon id="_3" data-name="3" class="cls-2" points="108.35 10.45 100.2 24.74 75.96 4.92 108.35 10.45"/><polygon id="_2" data-name="2" class="cls-3" points="74.46 55.08 75.96 4.92 100.2 24.74 74.46 55.08"/><polygon id="_1" data-name="1" class="cls-4" points="9.14 46.32 75.96 4.92 74.46 55.08 9.14 46.32"/></g></svg>